<?xml version="1.0" encoding="UTF-8" standalone="no"?>
<!DOCTYPE svg PUBLIC "-//W3C//DTD SVG 1.1//EN" "http://www.w3.org/Graphics/SVG/1.1/DTD/svg11.dtd">
<svg width="100%" height="100%" viewBox="0 0 2363 2363" version="1.1" xmlns="http://www.w3.org/2000/svg" xmlns:xlink="http://www.w3.org/1999/xlink" xml:space="preserve" xmlns:serif="http://www.serif.com/" style="fill-rule:evenodd;clip-rule:evenodd;stroke-linecap:round;stroke-miterlimit:1.5;">
    <g id="Break-Flag" serif:id="Break Flag" transform="matrix(1.28156,0,0,1.28156,576.708,-1099.36)">
        <g transform="matrix(0.934919,0,0,0.934919,85.2921,76.8671)">
            <path d="M1328.69,1419.85C1335.62,1322.63 1301.39,1241.12 1233.92,1181.1C1301.39,1121.09 1335.62,1039.58 1328.69,942.36L1013.81,942.36C1006.87,1039.58 1041.11,1121.09 1108.57,1181.1C1041.11,1241.12 1006.87,1322.63 1013.81,1419.85L1328.69,1419.85Z" style="fill:url(#_Linear1);stroke:black;stroke-width:52.16px;stroke-linecap:butt;"/>
        </g>
        <g transform="matrix(2.99988,0,0,0.934919,-1970.68,88.3355)">
            <path d="M1108.96,907.638L991.788,907.638L1108.96,907.638Z" style="stroke:black;stroke-width:21.95px;stroke-linecap:butt;"/>
        </g>
        <g transform="matrix(2.99988,0,0,0.934919,-1970.68,576.335)">
            <path d="M1108.96,907.638L991.788,907.638L1108.96,907.638Z" style="stroke:black;stroke-width:21.95px;stroke-linecap:butt;"/>
        </g>
    </g>
    <defs>
        <linearGradient id="_Linear1" x1="0" y1="0" x2="1" y2="0" gradientUnits="userSpaceOnUse" gradientTransform="matrix(0.843341,449.367,-677.623,1.27171,1171.25,942.36)"><stop offset="0" style="stop-color:white;stop-opacity:1"/><stop offset="0" style="stop-color:rgb(0,255,255);stop-opacity:1"/><stop offset="1" style="stop-color:rgb(23,0,255);stop-opacity:1"/></linearGradient>
    </defs>
</svg>
