<?xml version="1.0" encoding="UTF-8" standalone="no"?>
<!DOCTYPE svg PUBLIC "-//W3C//DTD SVG 1.1//EN" "http://www.w3.org/Graphics/SVG/1.1/DTD/svg11.dtd">
<svg width="100%" height="100%" viewBox="0 0 2363 2363" version="1.1" xmlns="http://www.w3.org/2000/svg" xmlns:xlink="http://www.w3.org/1999/xlink" xml:space="preserve" xmlns:serif="http://www.serif.com/" style="fill-rule:evenodd;clip-rule:evenodd;stroke-miterlimit:1.5;">
    <g transform="matrix(2.922,2.4962e-17,4.51901e-18,0.565885,-2267.31,1917.34)">
        <path d="M1277.69,3.658C1206.8,133.684 1142.38,120.008 1082.94,3.221L1082.94,786.138L1277.69,786.138L1277.69,3.658Z"/>
    </g>
    <g transform="matrix(2.922,-2.4962e-17,4.51901e-18,-0.565885,-2267.31,444.864)">
        <path d="M1277.69,3.658C1206.8,133.684 1142.38,120.008 1082.94,3.221L1082.94,786.138L1277.69,786.138L1277.69,3.658Z"/>
    </g>
    <g transform="matrix(2.19244,0,0,2.19244,-1407.92,-1408.4)">
        <path d="M1181.1,806.225C974.063,806.225 806.225,974.063 806.225,1181.1C806.225,1388.14 974.063,1555.98 1181.1,1555.98" style="fill:none;stroke:black;stroke-width:28.51px;stroke-dasharray:57.01,28.51,0,0;stroke-dashoffset:15.68;"/>
        <g transform="matrix(-1,-2.44929e-16,-2.44929e-16,1,2361.42,3.69482e-13)">
            <path d="M1181.1,806.225C974.063,806.225 806.225,974.063 806.225,1181.1C806.225,1388.14 974.063,1555.98 1181.1,1555.98" style="fill:none;stroke:black;stroke-width:28.51px;stroke-dasharray:57.01,28.51,0,0;stroke-dashoffset:15.68;"/>
        </g>
    </g>
    <g id="Break" transform="matrix(2.19244,0,0,2.19244,-1407.92,-1408.4)">
        <g transform="matrix(0.934919,0,0,0.934919,85.2921,76.8671)">
            <path d="M1328.69,1419.85C1335.62,1322.63 1301.39,1241.12 1233.92,1181.1C1301.39,1121.09 1335.62,1039.58 1328.69,942.36L1013.81,942.36C1006.87,1039.58 1041.11,1121.09 1108.57,1181.1C1041.11,1241.12 1006.87,1322.63 1013.81,1419.85L1328.69,1419.85Z" style="fill:url(#_Linear1);stroke:black;stroke-width:30.49px;"/>
        </g>
        <g transform="matrix(2.99988,0,0,0.934919,-1970.68,88.3355)">
            <path d="M1108.96,907.638L991.788,907.638L1108.96,907.638Z" style="stroke:black;stroke-width:12.83px;"/>
        </g>
        <g transform="matrix(2.99988,0,0,0.934919,-1970.68,576.335)">
            <path d="M1108.96,907.638L991.788,907.638L1108.96,907.638Z" style="stroke:black;stroke-width:12.83px;"/>
        </g>
    </g>
    <defs>
        <linearGradient id="_Linear1" x1="0" y1="0" x2="1" y2="0" gradientUnits="userSpaceOnUse" gradientTransform="matrix(0.843341,449.367,-677.623,1.27171,1171.25,942.36)"><stop offset="0" style="stop-color:white;stop-opacity:1"/><stop offset="0" style="stop-color:rgb(0,216,255);stop-opacity:1"/><stop offset="1" style="stop-color:rgb(255,231,0);stop-opacity:1"/></linearGradient>
    </defs>
</svg>
