<?xml version="1.0" encoding="UTF-8" standalone="no"?>
<!DOCTYPE svg PUBLIC "-//W3C//DTD SVG 1.1//EN" "http://www.w3.org/Graphics/SVG/1.1/DTD/svg11.dtd">
<svg width="100%" height="100%" viewBox="0 0 2363 2363" version="1.1" xmlns="http://www.w3.org/2000/svg" xmlns:xlink="http://www.w3.org/1999/xlink" xml:space="preserve" xmlns:serif="http://www.serif.com/" style="fill-rule:evenodd;clip-rule:evenodd;stroke-linecap:round;stroke-miterlimit:1.5;">
    <g transform="matrix(2.922,2.4962e-17,4.51901e-18,0.565885,-2267.31,1917.34)">
        <path d="M1277.69,3.658C1206.8,133.684 1142.38,120.008 1082.94,3.221L1082.94,786.138L1277.69,786.138L1277.69,3.658Z"/>
    </g>
    <g transform="matrix(2.922,-2.4962e-17,4.51901e-18,-0.565885,-2267.31,444.864)">
        <path d="M1277.69,3.658C1206.8,133.684 1142.38,120.008 1082.94,3.221L1082.94,786.138L1277.69,786.138L1277.69,3.658Z"/>
    </g>
    <g transform="matrix(1.94596,0,0,1.94596,-1116.76,-1117.27)">
        <g id="Commits">
            <path id="Commit-green" serif:id="Commit green" d="M1181.1,786.138C1399.09,786.138 1576.07,963.116 1576.07,1181.1C1576.07,1399.09 1399.09,1576.07 1181.1,1576.07C963.116,1576.07 786.138,1399.09 786.138,1181.1C786.138,963.116 963.116,786.138 1181.1,786.138ZM1181.1,983.62C1290.1,983.62 1378.58,1072.11 1378.58,1181.1C1378.58,1290.1 1290.1,1378.58 1181.1,1378.58C1072.11,1378.58 983.62,1290.1 983.62,1181.1C983.62,1072.11 1072.11,983.62 1181.1,983.62Z" style="fill:rgb(127,242,13);stroke:black;stroke-width:32.12px;"/>
        </g>
    </g>
    <g id="Drop" transform="matrix(1.96161,0,0,1.96161,-2519.38,-2041.96)">
        <path d="M1956,1417.36C1956,1409.42 1949.55,1402.97 1941.61,1402.97L1832.1,1402.97C1824.16,1402.97 1817.71,1409.42 1817.71,1417.36L1817.71,1460.13L1956,1460.13L1956,1417.36Z" style="fill:rgb(128,128,128);stroke:black;stroke-width:31.86px;"/>
        <g transform="matrix(0.957143,0,0,1,81.8389,0)">
            <path d="M2081.56,1484.38C2081.56,1471.21 2070.39,1460.52 2056.63,1460.52L1715.85,1460.52C1702.09,1460.52 1690.92,1471.21 1690.92,1484.38C1690.92,1484.38 1690.92,1540.8 1690.92,1553.57C1690.92,1554.97 1692.11,1556.11 1693.58,1556.11C1726.12,1556.11 2046.37,1556.11 2078.9,1556.11C2080.37,1556.11 2081.56,1554.97 2081.56,1553.57C2081.56,1540.8 2081.56,1484.38 2081.56,1484.38Z" style="fill:rgb(128,128,128);stroke:black;stroke-width:32.55px;"/>
        </g>
        <g transform="matrix(0.93856,0,0,0.920487,116.409,137.698)">
            <path d="M2061.3,1540.76L1712.16,1540.76L1721.75,1861.52C1721.75,1880.69 1737.02,1896.25 1755.81,1896.25L2017.65,1896.25C2036.45,1896.25 2051.71,1880.69 2051.71,1861.52L2061.3,1540.76Z" style="fill:rgb(128,128,128);stroke:black;stroke-width:34.28px;"/>
        </g>
        <path d="M1886.86,1606.15L1887.24,1814.55" style="fill:none;stroke:black;stroke-width:31.86px;"/>
        <g transform="matrix(1,0,0,1,80,0)">
            <path d="M1886.86,1606.15L1887.24,1814.55" style="fill:none;stroke:black;stroke-width:31.86px;"/>
        </g>
        <g transform="matrix(1,0,0,1,-80,0)">
            <path d="M1886.86,1606.15L1887.24,1814.55" style="fill:none;stroke:black;stroke-width:31.86px;"/>
        </g>
    </g>
</svg>
