<?xml version="1.0" encoding="UTF-8" standalone="no"?>
<!DOCTYPE svg PUBLIC "-//W3C//DTD SVG 1.1//EN" "http://www.w3.org/Graphics/SVG/1.1/DTD/svg11.dtd">
<svg width="100%" height="100%" viewBox="0 0 2363 2363" version="1.1" xmlns="http://www.w3.org/2000/svg" xmlns:xlink="http://www.w3.org/1999/xlink" xml:space="preserve" xmlns:serif="http://www.serif.com/" style="fill-rule:evenodd;clip-rule:evenodd;stroke-linecap:round;stroke-miterlimit:1.5;">
    <g transform="matrix(2.922,2.4962e-17,4.51901e-18,0.565885,-2267.31,1917.34)">
        <path d="M1277.69,3.658C1206.8,133.684 1142.38,120.008 1082.94,3.221L1082.94,786.138L1277.69,786.138L1277.69,3.658Z"/>
    </g>
    <g transform="matrix(2.922,-2.4962e-17,4.51901e-18,-0.565885,-2267.31,444.864)">
        <path d="M1277.69,3.658C1206.8,133.684 1142.38,120.008 1082.94,3.221L1082.94,786.138L1277.69,786.138L1277.69,3.658Z"/>
    </g>
    <g transform="matrix(1.94596,0,0,1.94596,-1116.76,-1117.27)">
        <g id="Commits">
            <path id="Commit-red" serif:id="Commit red" d="M1181.1,786.138C1399.09,786.138 1576.07,963.116 1576.07,1181.1C1576.07,1399.09 1399.09,1576.07 1181.1,1576.07C963.116,1576.07 786.138,1399.09 786.138,1181.1C786.138,963.116 963.116,786.138 1181.1,786.138ZM1181.1,983.62C1290.1,983.62 1378.58,1072.11 1378.58,1181.1C1378.58,1290.1 1290.1,1378.58 1181.1,1378.58C1072.11,1378.58 983.62,1290.1 983.62,1181.1C983.62,1072.11 1072.11,983.62 1181.1,983.62Z" style="fill:rgb(242,13,13);stroke:black;stroke-width:32.12px;"/>
        </g>
    </g>
    <g id="Edit" transform="matrix(2.64291,0,0,2.64291,-2468.93,-1497.48)">
        <g transform="matrix(1.12572,0,0,1.12572,-198.176,-96.8484)">
            <path d="M1635.75,708.59L1665.89,738.726C1665.89,738.726 1599.57,812.742 1579.14,835.542C1575.38,839.744 1570,842.145 1564.36,842.145L1556.14,842.145C1547.13,842.145 1539.26,836.077 1536.95,827.365C1536.61,826.072 1536.27,824.778 1535.94,823.524C1534.15,816.735 1536.07,809.502 1541.01,804.506C1565.13,780.086 1635.75,708.59 1635.75,708.59Z" style="fill:rgb(169,87,26);stroke:black;stroke-width:14px;stroke-linecap:butt;"/>
        </g>
        <g transform="matrix(1.12511,0.0370722,-0.0370722,1.12511,-160.916,-166.408)">
            <path d="M1641.4,699.222L1675.19,730.866C1686.41,723.666 1696.4,725.911 1701.5,730.02C1701.51,730.026 1701.51,730.032 1701.52,730.038C1702.05,730.525 1723.57,750.448 1728.97,755.451C1729.65,756.077 1730.7,756.042 1731.34,755.371C1737.35,749.001 1765.27,719.417 1771.28,713.048C1771.91,712.378 1771.88,711.323 1771.22,710.684C1760.51,700.372 1681.62,624.433 1681.62,624.433C1664.07,610.883 1619.09,616.387 1602.76,647.968C1602.63,648.217 1602.64,648.515 1602.79,648.751C1602.94,648.988 1603.21,649.128 1603.49,649.121C1647.23,647.942 1661.64,664.664 1641.4,699.222Z" style="fill:rgb(113,127,136);stroke:black;stroke-width:14px;stroke-linecap:butt;"/>
        </g>
    </g>
</svg>
