<?xml version="1.0" encoding="UTF-8" standalone="no"?>
<!DOCTYPE svg PUBLIC "-//W3C//DTD SVG 1.1//EN" "http://www.w3.org/Graphics/SVG/1.1/DTD/svg11.dtd">
<svg width="100%" height="100%" viewBox="0 0 2363 2363" version="1.1" xmlns="http://www.w3.org/2000/svg" xmlns:xlink="http://www.w3.org/1999/xlink" xml:space="preserve" xmlns:serif="http://www.serif.com/" style="fill-rule:evenodd;clip-rule:evenodd;stroke-linecap:round;stroke-miterlimit:1.5;">
    <g transform="matrix(2.922,2.4962e-17,4.51901e-18,0.565885,-2267.31,1917.34)">
        <path d="M1277.69,3.658C1206.8,133.684 1142.38,120.008 1082.94,3.221L1082.94,786.138L1277.69,786.138L1277.69,3.658Z"/>
    </g>
    <g transform="matrix(2.922,-2.4962e-17,4.51901e-18,-0.565885,-2267.31,444.864)">
        <path d="M1277.69,3.658C1206.8,133.684 1142.38,120.008 1082.94,3.221L1082.94,786.138L1277.69,786.138L1277.69,3.658Z"/>
    </g>
    <g transform="matrix(1.94596,0,0,1.94596,-1116.76,-1117.27)">
        <g id="Commits">
            <path id="Commit-blue" serif:id="Commit blue" d="M1181.1,786.138C1399.09,786.138 1576.07,963.116 1576.07,1181.1C1576.07,1399.09 1399.09,1576.07 1181.1,1576.07C963.116,1576.07 786.138,1399.09 786.138,1181.1C786.138,963.116 963.116,786.138 1181.1,786.138ZM1181.1,983.62C1290.1,983.62 1378.58,1072.11 1378.58,1181.1C1378.58,1290.1 1290.1,1378.58 1181.1,1378.58C1072.11,1378.58 983.62,1290.1 983.62,1181.1C983.62,1072.11 1072.11,983.62 1181.1,983.62Z" style="fill:rgb(13,34,242);stroke:black;stroke-width:32.12px;"/>
        </g>
    </g>
    <g id="Edit" transform="matrix(3.64629,0.000351648,-0.000351648,3.64629,-4819.34,-1517.35)">
        <g transform="matrix(1.16874,0,-1.51073e-20,1.16874,-258.592,-138.574)">
            <path d="M1635.75,708.59L1665.89,738.726C1665.89,738.726 1595.34,817.466 1577.36,837.535C1574.73,840.469 1570.98,842.145 1567.04,842.145L1551.53,842.145C1545.24,842.145 1539.74,837.909 1538.13,831.827C1537.12,828.01 1536,823.755 1535.07,820.217C1533.81,815.477 1535.16,810.428 1538.61,806.94C1559.99,785.29 1635.75,708.59 1635.75,708.59Z" style="fill:rgb(169,87,26);stroke:black;stroke-width:9.78px;stroke-linecap:butt;"/>
        </g>
        <g transform="matrix(1.12511,0.0370722,-0.0370722,1.12511,-160.916,-166.408)">
            <path d="M1641.4,699.222L1675.19,730.866C1686.41,723.664 1696.4,725.912 1701.5,730.023C1701.51,730.027 1701.51,730.031 1701.52,730.036C1701.98,730.462 1724.53,751.335 1729.31,755.762C1729.8,756.216 1730.56,756.19 1731.02,755.704C1736.39,750.015 1766.22,718.404 1771.59,712.715C1772.05,712.229 1772.03,711.465 1771.55,711.002C1762.26,702.06 1681.62,624.433 1681.62,624.433C1664.01,610.835 1618.78,616.425 1602.59,648.299C1602.5,648.48 1602.51,648.695 1602.62,648.866C1602.73,649.036 1602.92,649.137 1603.12,649.131C1647.15,647.849 1661.7,664.568 1641.4,699.222Z" style="fill:rgb(113,127,136);stroke:black;stroke-width:10.15px;stroke-linecap:butt;"/>
        </g>
    </g>
    <g id="Break-Flag" serif:id="Break Flag" transform="matrix(1.28156,0,0,1.28156,576.708,-1099.36)">
        <g transform="matrix(0.934919,0,0,0.934919,85.2921,76.8671)">
            <path d="M1328.69,1419.85C1335.62,1322.63 1301.39,1241.12 1233.92,1181.1C1301.39,1121.09 1335.62,1039.58 1328.69,942.36L1013.81,942.36C1006.87,1039.58 1041.11,1121.09 1108.57,1181.1C1041.11,1241.12 1006.87,1322.63 1013.81,1419.85L1328.69,1419.85Z" style="fill:url(#_Linear1);stroke:black;stroke-width:52.16px;stroke-linecap:butt;"/>
        </g>
        <g transform="matrix(2.99988,0,0,0.934919,-1970.68,88.3355)">
            <path d="M1108.96,907.638L991.788,907.638L1108.96,907.638Z" style="stroke:black;stroke-width:21.95px;stroke-linecap:butt;"/>
        </g>
        <g transform="matrix(2.99988,0,0,0.934919,-1970.68,576.335)">
            <path d="M1108.96,907.638L991.788,907.638L1108.96,907.638Z" style="stroke:black;stroke-width:21.95px;stroke-linecap:butt;"/>
        </g>
    </g>
    <defs>
        <linearGradient id="_Linear1" x1="0" y1="0" x2="1" y2="0" gradientUnits="userSpaceOnUse" gradientTransform="matrix(0.843341,449.367,-677.623,1.27171,1171.25,942.36)"><stop offset="0" style="stop-color:white;stop-opacity:1"/><stop offset="0" style="stop-color:rgb(0,255,255);stop-opacity:1"/><stop offset="1" style="stop-color:rgb(23,0,255);stop-opacity:1"/></linearGradient>
    </defs>
</svg>
