<?xml version="1.0" encoding="UTF-8" standalone="no"?>
<!DOCTYPE svg PUBLIC "-//W3C//DTD SVG 1.1//EN" "http://www.w3.org/Graphics/SVG/1.1/DTD/svg11.dtd">
<svg width="100%" height="100%" viewBox="0 0 2363 2363" version="1.1" xmlns="http://www.w3.org/2000/svg" xmlns:xlink="http://www.w3.org/1999/xlink" xml:space="preserve" xmlns:serif="http://www.serif.com/" style="fill-rule:evenodd;clip-rule:evenodd;stroke-miterlimit:1.5;">
    <g transform="matrix(2.922,2.4962e-17,4.51901e-18,0.565885,-2267.31,1917.34)">
        <path d="M1277.69,3.658C1206.8,133.684 1142.38,120.008 1082.94,3.221L1082.94,786.138L1277.69,786.138L1277.69,3.658Z"/>
    </g>
    <g transform="matrix(2.922,-2.4962e-17,4.51901e-18,-0.565885,-2267.31,444.864)">
        <path d="M1277.69,3.658C1206.8,133.684 1142.38,120.008 1082.94,3.221L1082.94,786.138L1277.69,786.138L1277.69,3.658Z"/>
    </g>
    <g transform="matrix(-4.07356e-16,2.30086,-2.27079,-4.32845e-16,3463.88,-1726.32)">
        <g id="Squash">
            <path id="Squash-orange" serif:id="Squash orange" d="M1169.12,1222.67L1169.12,1367.36L812.109,1005.62L1169.12,643.89L1169.12,788.584L1676.95,788.584L1676.95,1222.67L1169.12,1222.67Z" style="fill:rgb(242,120,13);stroke:black;stroke-width:27.34px;"/>
        </g>
    </g>
    <g id="Fixup" transform="matrix(2.27458,0,0,2.27458,-1503.61,-1583.7)">
        <g transform="matrix(1,0,0,1,-232.606,-232.608)">
            <path d="M1296.62,1269.05C1331.26,1269.05 1359.39,1297.18 1359.39,1331.83C1359.39,1366.48 1331.26,1394.61 1296.62,1394.61C1261.97,1394.61 1233.84,1366.48 1233.84,1331.83C1233.84,1297.18 1261.97,1269.05 1296.62,1269.05ZM1302.74,1309.55L1318.97,1326L1312.85,1348.27L1290.49,1354.11L1274.26,1337.66L1280.39,1315.39L1302.74,1309.55Z"/>
        </g>
        <g transform="matrix(0.526607,0.52593,-0.790682,0.7917,1543.12,-322.118)">
            <rect x="1073.6" y="1091.89" width="85.941" height="218.76"/>
        </g>
        <g transform="matrix(-0.526607,0.52593,0.235262,0.235565,1425.93,285.119)">
            <rect x="1073.6" y="1091.89" width="85.941" height="218.76"/>
        </g>
        <g transform="matrix(-1,0,0,-1,2593.23,2663.66)">
            <path d="M1296.62,1269.05C1331.26,1269.05 1359.39,1297.18 1359.39,1331.83C1359.39,1366.48 1331.26,1394.61 1296.62,1394.61C1261.97,1394.61 1233.84,1366.48 1233.84,1331.83C1233.84,1297.18 1261.97,1269.05 1296.62,1269.05ZM1302.74,1309.55L1318.97,1326L1312.85,1348.27L1290.49,1354.11L1274.26,1337.66L1280.39,1315.39L1302.74,1309.55Z"/>
        </g>
        <g transform="matrix(0.526607,-0.52593,-0.235262,-0.235565,934.699,2145.93)">
            <rect x="1073.6" y="1091.89" width="85.941" height="218.76"/>
        </g>
        <g transform="matrix(1,0,0,1,-1,0.453764)">
            <path d="M1008.12,1357.92C1004.34,1349.86 1002.24,1340.86 1002.24,1331.38C1002.24,1296.73 1030.36,1268.6 1065.01,1268.6C1099.66,1268.6 1127.79,1296.73 1127.79,1331.38C1127.79,1366.02 1099.66,1394.15 1065.01,1394.15C1055.36,1394.15 1046.22,1391.97 1038.04,1388.07L1038.38,1388.07L1072.67,1353.72L1064.66,1330.94L1042.8,1323.31L1008.12,1357.92Z"/>
        </g>
        <g transform="matrix(-0.999949,-0.0101037,0.0101037,-0.999949,2348.12,2441.29)">
            <path d="M1008.12,1357.92C1004.34,1349.86 1002.24,1340.86 1002.24,1331.38C1002.24,1296.73 1030.36,1268.6 1065.01,1268.6C1099.66,1268.6 1127.79,1296.73 1127.79,1331.38C1127.79,1366.02 1099.66,1394.15 1065.01,1394.15C1055.36,1394.15 1046.22,1391.97 1038.04,1388.07L1038.38,1388.07L1072.67,1353.72L1064.66,1330.94L1042.8,1323.31L1008.12,1357.92Z"/>
        </g>
    </g>
</svg>
