<?xml version="1.0" encoding="UTF-8" standalone="no"?>
<!DOCTYPE svg PUBLIC "-//W3C//DTD SVG 1.1//EN" "http://www.w3.org/Graphics/SVG/1.1/DTD/svg11.dtd">
<svg width="100%" height="100%" viewBox="0 0 2363 2363" version="1.1" xmlns="http://www.w3.org/2000/svg" xmlns:xlink="http://www.w3.org/1999/xlink" xml:space="preserve" xmlns:serif="http://www.serif.com/" style="fill-rule:evenodd;clip-rule:evenodd;stroke-miterlimit:1.5;">
    <g transform="matrix(2.922,2.4962e-17,4.51901e-18,0.565885,-2267.31,1917.34)">
        <path d="M1277.69,3.658C1206.8,133.684 1142.38,120.008 1082.94,3.221L1082.94,786.138L1277.69,786.138L1277.69,3.658Z"/>
    </g>
    <g transform="matrix(2.922,-2.4962e-17,4.51901e-18,-0.565885,-2267.31,444.864)">
        <path d="M1277.69,3.658C1206.8,133.684 1142.38,120.008 1082.94,3.221L1082.94,786.138L1277.69,786.138L1277.69,3.658Z"/>
    </g>
    <g transform="matrix(2.19244,0,0,2.19244,-1407.92,-1408.4)">
        <path d="M1181.1,806.225C974.063,806.225 806.225,974.063 806.225,1181.1C806.225,1388.14 974.063,1555.98 1181.1,1555.98" style="fill:none;stroke:black;stroke-width:28.51px;stroke-dasharray:57.01,28.51,0,0;stroke-dashoffset:15.68;"/>
        <g transform="matrix(-1,-2.44929e-16,-2.44929e-16,1,2361.42,3.69482e-13)">
            <path d="M1181.1,806.225C974.063,806.225 806.225,974.063 806.225,1181.1C806.225,1388.14 974.063,1555.98 1181.1,1555.98" style="fill:none;stroke:black;stroke-width:28.51px;stroke-dasharray:57.01,28.51,0,0;stroke-dashoffset:15.68;"/>
        </g>
    </g>
    <g id="Label" transform="matrix(1.7224,1.79621,-1.79621,1.7224,2344.9,-1129.93)">
        <path d="M487.082,856.826C487.082,851.463 484.814,846.351 480.839,842.752C458.639,822.654 383.229,754.384 352.902,726.929C345.652,720.365 334.601,720.384 327.372,726.972C297.219,754.458 222.38,822.675 200.349,842.757C196.403,846.354 194.154,851.447 194.154,856.787L194.154,1162.12C194.154,1167.15 196.154,1171.98 199.714,1175.54C203.274,1179.1 208.103,1181.1 213.138,1181.1L468.098,1181.1C473.133,1181.1 477.962,1179.1 481.522,1175.54C485.082,1171.98 487.082,1167.15 487.082,1162.12L487.082,856.826Z" style="fill:url(#_Linear1);"/>
        <clipPath id="_clip2">
            <path d="M487.082,856.826C487.082,851.463 484.814,846.351 480.839,842.752C458.639,822.654 383.229,754.384 352.902,726.929C345.652,720.365 334.601,720.384 327.372,726.972C297.219,754.458 222.38,822.675 200.349,842.757C196.403,846.354 194.154,851.447 194.154,856.787L194.154,1162.12C194.154,1167.15 196.154,1171.98 199.714,1175.54C203.274,1179.1 208.103,1181.1 213.138,1181.1L468.098,1181.1C473.133,1181.1 477.962,1179.1 481.522,1175.54C485.082,1171.98 487.082,1167.15 487.082,1162.12L487.082,856.826Z"/>
        </clipPath>
        <g clip-path="url(#_clip2)">
            <circle cx="340.618" cy="846.78" r="40.555" style="fill:white;stroke:black;stroke-width:25.11px;stroke-linecap:round;"/>
        </g>
        <path d="M487.082,856.826C487.082,851.463 484.814,846.351 480.839,842.752C458.639,822.654 383.229,754.384 352.902,726.929C345.652,720.365 334.601,720.384 327.372,726.972C297.219,754.458 222.38,822.675 200.349,842.757C196.403,846.354 194.154,851.447 194.154,856.787L194.154,1162.12C194.154,1167.15 196.154,1171.98 199.714,1175.54C203.274,1179.1 208.103,1181.1 213.138,1181.1L468.098,1181.1C473.133,1181.1 477.962,1179.1 481.522,1175.54C485.082,1171.98 487.082,1167.15 487.082,1162.12L487.082,856.826Z" style="fill:none;stroke:black;stroke-width:25.11px;stroke-linecap:round;"/>
    </g>
    <defs>
        <linearGradient id="_Linear1" x1="0" y1="0" x2="1" y2="0" gradientUnits="userSpaceOnUse" gradientTransform="matrix(227.531,-374.877,596.043,361.767,211.866,1181.1)"><stop offset="0" style="stop-color:rgb(243,0,255);stop-opacity:1"/><stop offset="1" style="stop-color:rgb(242,13,143);stop-opacity:1"/></linearGradient>
    </defs>
</svg>
