<?xml version="1.0" encoding="UTF-8" standalone="no"?>
<!DOCTYPE svg PUBLIC "-//W3C//DTD SVG 1.1//EN" "http://www.w3.org/Graphics/SVG/1.1/DTD/svg11.dtd">
<svg width="100%" height="100%" viewBox="0 0 2363 2363" version="1.1" xmlns="http://www.w3.org/2000/svg" xmlns:xlink="http://www.w3.org/1999/xlink" xml:space="preserve" xmlns:serif="http://www.serif.com/" style="fill-rule:evenodd;clip-rule:evenodd;stroke-linecap:round;stroke-miterlimit:1.5;">
    <g transform="matrix(2.922,2.4962e-17,4.51901e-18,0.565885,-2267.31,1917.34)">
        <path d="M1277.69,3.658C1206.8,133.684 1142.38,120.008 1082.94,3.221L1082.94,786.138L1277.69,786.138L1277.69,3.658Z"/>
    </g>
    <g transform="matrix(2.922,-2.4962e-17,4.51901e-18,-0.565885,-2267.31,444.864)">
        <path d="M1277.69,3.658C1206.8,133.684 1142.38,120.008 1082.94,3.221L1082.94,786.138L1277.69,786.138L1277.69,3.658Z"/>
    </g>
    <g transform="matrix(1.94596,0,0,1.94596,-1116.76,-1117.27)">
        <g id="Commits">
            <path id="Commit-orange" serif:id="Commit orange" d="M1181.1,786.138C1399.09,786.138 1576.07,963.116 1576.07,1181.1C1576.07,1399.09 1399.09,1576.07 1181.1,1576.07C963.116,1576.07 786.138,1399.09 786.138,1181.1C786.138,963.116 963.116,786.138 1181.1,786.138ZM1181.1,983.62C1290.1,983.62 1378.58,1072.11 1378.58,1181.1C1378.58,1290.1 1290.1,1378.58 1181.1,1378.58C1072.11,1378.58 983.62,1290.1 983.62,1181.1C983.62,1072.11 1072.11,983.62 1181.1,983.62Z" style="fill:rgb(242,120,13);stroke:black;stroke-width:32.12px;"/>
        </g>
    </g>
    <g id="Exec-Flag" serif:id="Exec Flag" transform="matrix(1.00007,0,-1.35525e-20,1.00007,894.655,-767.756)">
        <path d="M1119.23,1198.76C1119.23,1198.76 1050.51,1473.55 1050.17,1475.08C1044.05,1502.89 1077.13,1502.69 1086.39,1490.54C1086.97,1489.78 1374.29,1126.24 1376.74,1123.37C1388.09,1110.08 1385.91,1086.55 1369.53,1086.3C1368.85,1086.29 1248.46,1086.18 1248.46,1086.18C1248.46,1086.18 1340.71,900.483 1341.61,898.829C1354.53,874.982 1347.34,863.634 1329.97,862.612C1328.19,862.507 1106.1,862.013 1105.08,862.029C1095.55,862.184 1090.67,867.103 1086.12,879.469C1085.33,881.618 976.153,1172.29 975.767,1173.45C971.427,1186.57 981.597,1197.16 992.051,1198.52C995.208,1198.93 1119.23,1198.76 1119.23,1198.76Z" style="fill:url(#_Linear1);stroke:black;stroke-width:62.5px;stroke-linejoin:round;"/>
    </g>
    <defs>
        <linearGradient id="_Linear1" x1="0" y1="0" x2="1" y2="0" gradientUnits="userSpaceOnUse" gradientTransform="matrix(-339.257,280.38,-436.121,-527.704,1383.83,984.936)"><stop offset="0" style="stop-color:rgb(255,220,0);stop-opacity:1"/><stop offset="1" style="stop-color:rgb(254,130,0);stop-opacity:1"/></linearGradient>
    </defs>
</svg>
