<?xml version="1.0" encoding="UTF-8" standalone="no"?>
<!DOCTYPE svg PUBLIC "-//W3C//DTD SVG 1.1//EN" "http://www.w3.org/Graphics/SVG/1.1/DTD/svg11.dtd">
<svg width="100%" height="100%" viewBox="0 0 2363 2363" version="1.1" xmlns="http://www.w3.org/2000/svg" xmlns:xlink="http://www.w3.org/1999/xlink" xml:space="preserve" xmlns:serif="http://www.serif.com/" style="fill-rule:evenodd;clip-rule:evenodd;stroke-linecap:round;stroke-miterlimit:1.5;">
    <g id="Reset">
        <g transform="matrix(-1,-1.22465e-16,1.22832e-16,-1.003,915.881,3171.16)">
            <rect x="391.939" y="1299.6" width="140.783" height="567.368"/>
        </g>
        <g transform="matrix(-1,-1.22465e-16,1.22832e-16,-1.003,634.314,3171.16)">
            <rect x="391.939" y="1299.6" width="140.783" height="567.368"/>
        </g>
        <g transform="matrix(1.99734e-16,-3.2619,1.12117,6.86521e-17,268.046,5525.72)">
            <path d="M1362.94,1193.53L1362.94,1275.78L1537.4,1275.78L1537.4,1193.53L1536.93,1068.98L1693.89,1068.58L1694.02,561.011L1489.7,561.011C1419.73,561.011 1363,726.011 1362.97,929.595C1362.96,1068.49 1362.94,1193.53 1362.94,1193.53Z"/>
        </g>
        <g transform="matrix(-1.99734e-16,3.2619,-1.12117,-6.86521e-17,2095.1,-3163.51)">
            <path d="M1362.94,1193.53L1362.94,1275.78L1537.4,1275.78L1537.4,1193.53L1536.93,1068.98L1693.89,1068.58L1694.02,561.011L1489.7,561.011C1419.73,561.011 1363,726.011 1362.97,929.595C1362.96,1068.49 1362.94,1193.53 1362.94,1193.53Z"/>
        </g>
        <g transform="matrix(1.44344,0,0,1.52991,-186.52,-1111.73)">
            <path d="M1395.83,1385.58L1395.83,1524.21L1018.85,1246.95L1395.83,969.69L1395.83,1108.32L1745.04,1108.32L1745.04,1385.58L1395.83,1385.58Z" style="fill:url(#_Linear1);stroke:black;stroke-width:42.02px;"/>
        </g>
    </g>
    <defs>
        <linearGradient id="_Linear1" x1="0" y1="0" x2="1" y2="0" gradientUnits="userSpaceOnUse" gradientTransform="matrix(726.19,0,0,554.52,1018.85,1246.95)"><stop offset="0" style="stop-color:rgb(0,255,24);stop-opacity:1"/><stop offset="1" style="stop-color:rgb(0,255,165);stop-opacity:1"/></linearGradient>
    </defs>
</svg>
