<?xml version="1.0" encoding="UTF-8" standalone="no"?>
<!DOCTYPE svg PUBLIC "-//W3C//DTD SVG 1.1//EN" "http://www.w3.org/Graphics/SVG/1.1/DTD/svg11.dtd">
<svg width="100%" height="100%" viewBox="0 0 2363 2363" version="1.1" xmlns="http://www.w3.org/2000/svg" xmlns:xlink="http://www.w3.org/1999/xlink" xml:space="preserve" xmlns:serif="http://www.serif.com/" style="fill-rule:evenodd;clip-rule:evenodd;stroke-linecap:round;stroke-miterlimit:1.5;">
    <g transform="matrix(2.922,2.4962e-17,4.51901e-18,0.565885,-2267.31,1917.34)">
        <path d="M1277.69,3.658C1206.8,133.684 1142.38,120.008 1082.94,3.221L1082.94,786.138L1277.69,786.138L1277.69,3.658Z"/>
    </g>
    <g transform="matrix(2.922,-2.4962e-17,4.51901e-18,-0.565885,-2267.31,444.864)">
        <path d="M1277.69,3.658C1206.8,133.684 1142.38,120.008 1082.94,3.221L1082.94,786.138L1277.69,786.138L1277.69,3.658Z"/>
    </g>
    <g transform="matrix(1.94596,0,0,1.94596,-1116.76,-1117.27)">
        <g id="Commits">
            <path id="Commit-red" serif:id="Commit red" d="M1181.1,786.138C1399.09,786.138 1576.07,963.116 1576.07,1181.1C1576.07,1399.09 1399.09,1576.07 1181.1,1576.07C963.116,1576.07 786.138,1399.09 786.138,1181.1C786.138,963.116 963.116,786.138 1181.1,786.138ZM1181.1,983.62C1290.1,983.62 1378.58,1072.11 1378.58,1181.1C1378.58,1290.1 1290.1,1378.58 1181.1,1378.58C1072.11,1378.58 983.62,1290.1 983.62,1181.1C983.62,1072.11 1072.11,983.62 1181.1,983.62Z" style="fill:rgb(242,13,13);stroke:black;stroke-width:32.12px;"/>
        </g>
    </g>
    <g id="Reword" transform="matrix(2.64291,0,0,2.64291,-2468.93,-1497.48)">
        <g transform="matrix(0.706669,0.707544,-0.641977,0.641184,1011.06,-928.351)">
            <path d="M1662.5,925.957C1662.68,925.629 1662.78,925.251 1662.78,924.866C1662.78,912.914 1662.78,723.158 1662.78,723.158L1590.93,723.158L1590.93,924.877C1590.93,925.255 1591.02,925.626 1591.2,925.951C1594.04,931.149 1618.34,975.719 1624.86,987.675C1625.2,988.299 1625.81,988.682 1626.47,988.686C1627.13,988.689 1627.75,988.313 1628.09,987.692C1634.74,975.766 1659.59,931.188 1662.5,925.957Z" style="fill:rgb(255,212,0);stroke:black;stroke-width:16.51px;stroke-linecap:butt;"/>
        </g>
        <g transform="matrix(1.2705,1.25021,-1.14037,1.15888,323.262,-2174.88)">
            <path d="M1695.66,617.639C1695.66,614.147 1693.08,611.317 1689.89,611.317L1661.07,611.317C1657.88,611.317 1655.3,614.147 1655.3,617.639L1655.3,642.39L1695.66,642.39L1695.66,617.639Z" style="fill:rgb(254,110,205);stroke:black;stroke-width:9.24px;stroke-linecap:butt;"/>
        </g>
    </g>
</svg>
