<?xml version="1.0" encoding="UTF-8" standalone="no"?>
<!DOCTYPE svg PUBLIC "-//W3C//DTD SVG 1.1//EN" "http://www.w3.org/Graphics/SVG/1.1/DTD/svg11.dtd">
<svg width="100%" height="100%" viewBox="0 0 2363 2363" version="1.1" xmlns="http://www.w3.org/2000/svg" xmlns:xlink="http://www.w3.org/1999/xlink" xml:space="preserve" xmlns:serif="http://www.serif.com/" style="fill-rule:evenodd;clip-rule:evenodd;stroke-linecap:round;stroke-miterlimit:1.5;">
    <g transform="matrix(2.922,2.4962e-17,4.51901e-18,0.565885,-2267.31,1917.34)">
        <path d="M1277.69,3.658C1206.8,133.684 1142.38,120.008 1082.94,3.221L1082.94,786.138L1277.69,786.138L1277.69,3.658Z"/>
    </g>
    <g transform="matrix(2.922,-2.4962e-17,4.51901e-18,-0.565885,-2267.31,444.864)">
        <path d="M1277.69,3.658C1206.8,133.684 1142.38,120.008 1082.94,3.221L1082.94,786.138L1277.69,786.138L1277.69,3.658Z"/>
    </g>
    <g transform="matrix(1.94596,0,0,1.94596,-1116.76,-1117.27)">
        <g id="Commits">
            <path id="Commit-blue" serif:id="Commit blue" d="M1181.1,786.138C1399.09,786.138 1576.07,963.116 1576.07,1181.1C1576.07,1399.09 1399.09,1576.07 1181.1,1576.07C963.116,1576.07 786.138,1399.09 786.138,1181.1C786.138,963.116 963.116,786.138 1181.1,786.138ZM1181.1,983.62C1290.1,983.62 1378.58,1072.11 1378.58,1181.1C1378.58,1290.1 1290.1,1378.58 1181.1,1378.58C1072.11,1378.58 983.62,1290.1 983.62,1181.1C983.62,1072.11 1072.11,983.62 1181.1,983.62Z" style="fill:rgb(13,34,242);stroke:black;stroke-width:32.12px;"/>
        </g>
    </g>
    <g id="Reword" transform="matrix(4.06765,0,0,4.06765,-5533.61,-1796.88)">
        <g transform="matrix(0.706669,0.707544,-0.641977,0.641184,1033.43,-949.985)">
            <path d="M1662.6,925.781C1662.72,925.568 1662.78,925.322 1662.78,925.072L1662.78,723.158L1590.93,723.158L1590.93,925.079C1590.93,925.325 1590.99,925.566 1591.11,925.777C1593.51,930.182 1619.83,978.444 1625.42,988.705C1625.64,989.11 1626.04,989.359 1626.47,989.362C1626.9,989.364 1627.3,989.119 1627.52,988.716C1633.23,978.482 1660.13,930.214 1662.6,925.781Z" style="fill:rgb(255,212,0);stroke:black;stroke-width:10.73px;stroke-linecap:butt;"/>
        </g>
        <g transform="matrix(0.245842,0,0,0.245842,1360.39,441.748)">
            <path d="M826.463,1331.37L1033,1538.16L760.291,1601.81L826.463,1331.37Z" style="fill:rgb(241,180,96);stroke:black;stroke-width:41.67px;stroke-linecap:butt;"/>
        </g>
        <g transform="matrix(0.0915191,0,0,0.0915191,1477.72,688.945)">
            <path d="M826.463,1331.37L1033,1538.16L760.291,1601.81L826.463,1331.37Z" style="stroke:black;stroke-width:111.93px;stroke-linecap:butt;"/>
        </g>
        <g transform="matrix(1.2705,1.25021,-1.14037,1.15888,323.262,-2174.88)">
            <path d="M1695.66,615.424C1695.66,614.335 1695.27,613.29 1694.56,612.52C1693.86,611.75 1692.91,611.317 1691.91,611.317L1659.05,611.317C1658.06,611.317 1657.1,611.75 1656.4,612.52C1655.7,613.29 1655.3,614.335 1655.3,615.424L1655.3,642.39L1695.66,642.39L1695.66,615.424Z" style="fill:rgb(254,110,205);stroke:black;stroke-width:6px;stroke-linecap:butt;"/>
        </g>
    </g>
    <g id="Exec-Flag" serif:id="Exec Flag" transform="matrix(1.00007,0,-1.35525e-20,1.00007,894.655,-767.756)">
        <path d="M1119.23,1198.76C1119.23,1198.76 1050.51,1473.55 1050.17,1475.08C1044.05,1502.89 1077.13,1502.69 1086.39,1490.54C1086.97,1489.78 1374.29,1126.24 1376.74,1123.37C1388.09,1110.08 1385.91,1086.55 1369.53,1086.3C1368.85,1086.29 1248.46,1086.18 1248.46,1086.18C1248.46,1086.18 1340.71,900.483 1341.61,898.829C1354.53,874.982 1347.34,863.634 1329.97,862.612C1328.19,862.507 1106.1,862.013 1105.08,862.029C1095.55,862.184 1090.67,867.103 1086.12,879.469C1085.33,881.618 976.153,1172.29 975.767,1173.45C971.427,1186.57 981.597,1197.16 992.051,1198.52C995.208,1198.93 1119.23,1198.76 1119.23,1198.76Z" style="fill:url(#_Linear1);stroke:black;stroke-width:62.5px;stroke-linejoin:round;"/>
    </g>
    <defs>
        <linearGradient id="_Linear1" x1="0" y1="0" x2="1" y2="0" gradientUnits="userSpaceOnUse" gradientTransform="matrix(-339.257,280.38,-436.121,-527.704,1383.83,984.936)"><stop offset="0" style="stop-color:rgb(255,220,0);stop-opacity:1"/><stop offset="1" style="stop-color:rgb(254,130,0);stop-opacity:1"/></linearGradient>
    </defs>
</svg>
